<?xml version="1.0" standalone="no"?>
<!DOCTYPE svg PUBLIC "-//W3C//DTD SVG 20010904//EN"
 "http://www.w3.org/TR/2001/REC-SVG-20010904/DTD/svg10.dtd">
<svg version="1.0" xmlns="http://www.w3.org/2000/svg"
 width="3464.000000pt" height="3464.000000pt" viewBox="0 0 3464.000000 3464.000000"
 preserveAspectRatio="xMidYMid meet">

<g transform="translate(0.000000,3464.000000) scale(0.100000,-0.100000)"
fill="#000000" stroke="none">
<path d="M21410 23219 c-518 -37 -1046 -151 -1520 -329 -47 -18 -101 -38 -120
-45 -120 -44 -505 -229 -645 -310 -44 -25 -99 -55 -122 -67 l-42 -21 -138 76
c-701 383 -1365 593 -2123 672 -208 22 -681 30 -900 16 -652 -41 -1283 -194
-1860 -451 -149 -66 -338 -160 -428 -212 -301 -174 -377 -223 -600 -385 -365
-264 -773 -663 -1078 -1054 -111 -142 -114 -144 -161 -131 -260 75 -334 91
-508 117 -60 9 -135 22 -165 28 l-55 12 -66 195 c-36 107 -85 251 -109 320
-23 69 -60 177 -82 240 -91 267 -141 397 -164 432 -37 57 -93 106 -154 136
-49 24 -67 27 -160 27 -94 0 -111 -3 -165 -28 -97 -45 -153 -113 -175 -210
-13 -62 -3 -124 55 -311 24 -78 46 -157 50 -176 4 -19 11 -41 16 -50 25 -46
160 -497 166 -553 l6 -64 -104 -32 c-215 -67 -425 -149 -581 -228 -58 -29
-113 -53 -122 -53 -13 0 -106 90 -201 195 -15 17 -68 75 -118 130 -234 254
-316 343 -352 383 -64 70 -145 118 -231 138 -70 15 -81 15 -142 0 -165 -41
-266 -161 -266 -316 0 -89 18 -134 90 -229 27 -35 56 -75 65 -88 10 -14 35
-44 58 -68 30 -31 41 -51 41 -74 0 -22 5 -31 16 -31 26 0 42 -25 41 -63 -1
-45 8 -55 35 -38 18 11 23 10 45 -16 21 -25 44 -69 45 -90 1 -4 8 -13 16 -19
8 -6 13 -17 10 -25 -3 -8 9 -22 29 -35 32 -19 45 -35 75 -94 16 -32 31 -42 40
-27 12 20 31 -8 31 -45 0 -18 6 -40 14 -49 7 -9 16 -26 18 -38 2 -13 7 -31 10
-42 7 -21 -23 -86 -80 -174 -40 -62 -104 -181 -162 -300 -65 -133 -80 -160
-97 -163 -16 -4 -98 31 -276 115 -63 31 -176 83 -250 118 -192 90 -310 146
-425 202 -168 82 -188 88 -300 88 -88 -1 -106 -4 -150 -27 -96 -51 -156 -133
-177 -244 -26 -142 72 -306 229 -380 17 -9 39 -24 49 -35 9 -10 23 -19 31 -19
8 0 12 -4 8 -9 -3 -5 3 -12 14 -16 10 -3 22 -18 26 -32 8 -32 53 -78 86 -88
12 -4 32 -16 43 -26 11 -11 30 -19 42 -19 12 0 36 -11 52 -25 37 -31 124 -75
149 -75 10 0 30 -11 45 -25 15 -14 35 -25 44 -25 23 0 158 -66 174 -85 7 -8
18 -15 26 -15 7 0 30 -18 50 -40 23 -24 46 -40 60 -40 15 0 44 -19 76 -50 29
-27 56 -50 60 -50 4 0 8 -11 8 -25 0 -14 5 -25 10 -25 6 0 10 -6 10 -14 0 -8
5 -16 11 -18 24 -8 1 -499 -25 -526 -13 -12 -407 -3 -586 13 -133 13 -821 46
-858 42 -62 -7 -166 -61 -200 -105 -59 -74 -76 -120 -76 -207 0 -67 5 -91 29
-143 42 -95 164 -197 256 -216 14 -3 47 -22 73 -42 52 -39 135 -74 177 -74 14
0 50 -7 80 -17 33 -10 84 -16 134 -15 47 1 82 -3 86 -9 4 -7 67 -12 169 -14
102 -2 166 -7 173 -14 6 -6 46 -11 93 -11 84 0 187 -28 209 -57 6 -7 30 -17
55 -21 26 -5 44 -13 43 -20 -2 -7 1 -12 6 -12 5 0 23 -14 40 -31 19 -19 37
-29 47 -25 33 13 55 -74 84 -324 5 -41 12 -95 15 -120 l7 -45 -44 -19 c-95
-42 -140 -60 -323 -128 -192 -71 -258 -94 -485 -173 -69 -24 -156 -55 -195
-70 -38 -15 -89 -34 -112 -42 -54 -19 -126 -82 -161 -141 -24 -42 -27 -57 -27
-137 0 -81 3 -97 32 -156 31 -62 77 -113 161 -177 27 -20 99 -40 204 -57 21
-3 38 -10 38 -14 0 -12 100 -24 113 -13 7 4 28 9 47 11 19 1 55 8 80 16 25 7
70 16 100 20 69 8 160 33 180 49 19 16 89 36 124 36 15 0 38 7 51 16 21 13 42
15 118 11 158 -10 207 -21 266 -61 29 -20 61 -36 71 -36 19 0 33 -27 28 -51
-2 -8 8 -15 22 -17 35 -5 46 -17 64 -67 8 -24 31 -60 50 -80 20 -20 36 -42 36
-50 0 -8 5 -15 10 -15 6 0 10 -16 10 -36 0 -23 4 -33 11 -28 16 10 29 -15 29
-58 0 -20 5 -48 11 -62 6 -13 9 -36 5 -51 -4 -17 -118 -139 -299 -321 -213
-214 -298 -307 -314 -342 -30 -63 -31 -169 -2 -246 28 -77 123 -173 217 -220
66 -33 78 -36 160 -36 81 0 94 3 159 35 39 19 76 35 81 35 5 0 15 7 23 16 7 8
21 13 31 11 20 -6 25 9 6 16 -7 3 2 8 20 12 18 4 41 18 51 31 10 13 26 24 35
24 9 0 18 12 22 28 11 51 12 53 41 46 16 -4 25 -3 21 1 -7 7 33 33 92 61 8 4
31 20 52 36 20 15 52 35 71 43 20 8 38 19 42 25 3 5 23 10 44 10 21 0 56 7 76
16 46 19 209 20 241 2 5 -3 27 -9 49 -13 21 -3 56 -16 78 -26 21 -11 61 -23
88 -26 27 -3 54 -12 60 -19 6 -8 16 -14 21 -14 10 0 70 -41 80 -55 7 -10 11
-11 43 -14 8 0 22 -19 31 -42 12 -28 20 -37 27 -30 17 17 24 14 56 -33 l30
-45 -30 -102 c-16 -56 -49 -159 -73 -228 -38 -111 -58 -167 -131 -371 -41
-112 -35 -204 17 -303 37 -69 99 -127 177 -163 45 -22 75 -28 153 -32 92 -4
99 -3 164 27 93 43 134 89 174 192 11 30 29 72 39 94 10 22 22 55 26 72 3 18
11 35 16 38 5 4 9 14 9 23 0 9 6 29 14 44 8 15 17 41 21 59 4 19 11 40 16 49
4 8 15 39 24 67 9 29 21 55 26 58 5 4 9 15 9 25 0 11 6 34 14 52 8 18 24 60
36 93 53 145 112 260 134 260 9 0 17 5 18 10 4 16 54 55 71 55 8 0 20 7 27 15
7 8 18 15 24 15 6 0 27 13 46 28 19 16 46 32 60 36 197 58 246 66 384 66 107
0 136 -3 146 -15 8 -10 30 -15 63 -15 43 0 55 -5 88 -35 40 -36 76 -47 66 -20
-8 19 11 31 26 16 9 -9 9 -14 -1 -20 -7 -4 -10 -15 -6 -24 7 -19 74 -25 74 -6
0 5 5 7 11 4 7 -5 5 -13 -5 -24 -23 -25 -21 -29 24 -42 22 -7 40 -17 40 -23 0
-6 5 -4 10 4 8 12 10 11 10 -7 0 -13 3 -23 8 -23 4 0 27 -18 52 -40 57 -52 51
-46 112 -108 29 -29 72 -71 96 -94 34 -33 40 -44 30 -55 -6 -8 -7 -13 -2 -12
28 5 47 -7 113 -71 40 -38 77 -70 82 -70 5 0 9 -7 9 -15 0 -8 8 -15 18 -15 24
-1 123 -95 125 -120 1 -19 21 -31 62 -35 11 -1 24 -3 29 -4 5 0 3 -8 -4 -16
-16 -19 -12 -24 27 -27 18 -1 30 -5 27 -9 -2 -4 10 -12 26 -18 20 -7 30 -17
30 -30 0 -12 7 -21 15 -21 8 0 15 -4 15 -10 0 -5 5 -10 10 -10 6 0 30 -9 55
-21 31 -15 45 -27 45 -41 0 -14 5 -18 16 -14 20 8 54 -11 54 -30 0 -8 11 -20
25 -26 14 -6 25 -17 25 -25 0 -7 6 -13 13 -14 6 -1 23 -2 37 -2 19 -2 26 -8
28 -27 5 -35 18 -46 36 -31 12 11 26 8 73 -14 43 -19 54 -28 43 -35 -8 -5 -21
-5 -32 1 -14 7 -18 6 -18 -6 0 -8 9 -15 19 -15 11 0 26 -9 34 -20 12 -17 18
-19 46 -9 27 10 38 7 89 -19 31 -17 56 -36 54 -42 -7 -29 18 -48 64 -48 28 0
52 -7 63 -16 10 -9 37 -17 62 -18 l44 -1 -50 -7 -50 -6 58 -27 c70 -33 136
-45 117 -22 -17 21 13 21 34 0 8 -8 19 -15 25 -15 6 0 11 -5 11 -11 0 -19 44
-48 73 -49 15 0 27 -4 27 -8 0 -14 78 -45 114 -46 26 -1 32 -5 28 -18 -6 -23
30 -25 52 -3 19 19 32 19 40 -1 7 -19 -2 -37 -15 -29 -5 3 -6 -1 -3 -8 7 -18
36 -27 89 -27 26 0 53 -9 77 -25 27 -19 50 -25 87 -25 28 0 51 -4 51 -8 0 -12
60 -31 109 -36 24 -2 48 -9 54 -15 6 -6 20 -11 32 -11 11 0 29 -7 39 -15 12
-9 42 -15 79 -15 43 0 67 -5 88 -20 24 -18 42 -21 117 -19 49 1 97 -3 108 -9
35 -18 257 -50 379 -53 39 -2 83 -9 98 -16 15 -8 51 -14 80 -15 423 -7 677 -7
677 1 0 10 75 18 252 27 83 4 120 10 129 20 6 8 30 14 53 14 22 1 59 7 81 15
22 8 41 15 43 15 1 0 2 -7 2 -17 0 -15 2 -15 18 -1 11 10 37 16 74 16 31 0 65
5 76 11 12 6 32 11 47 11 14 0 38 6 53 14 15 7 60 16 99 19 40 3 85 12 100 20
42 21 127 47 157 47 14 0 26 5 26 10 0 6 9 10 20 10 11 0 20 5 20 11 0 8 5 8
15 -1 13 -11 15 -8 15 19 0 33 23 44 34 16 3 -8 10 -15 15 -15 5 0 16 7 25 15
8 8 32 15 54 15 50 0 175 43 227 77 22 15 42 28 45 28 53 8 80 18 80 31 0 10
7 13 23 9 27 -6 79 7 84 22 2 6 -8 14 -22 17 -45 11 -18 23 37 16 38 -5 61 -3
81 7 15 7 27 11 27 8 0 -4 10 1 22 9 16 11 25 13 35 4 9 -7 17 -7 26 -1 6 6
24 13 40 17 15 3 27 11 27 16 0 6 13 10 28 10 15 0 33 5 39 11 12 12 165 38
242 40 31 1 81 -4 112 -10 31 -7 60 -11 65 -10 25 7 173 -14 197 -27 15 -8 31
-13 36 -10 12 8 42 -4 37 -13 -3 -4 -2 -11 2 -17 10 -14 93 -44 104 -38 6 4
20 2 31 -4 26 -12 138 -47 152 -47 16 0 37 -24 30 -35 -3 -5 2 -10 12 -10 11
0 24 -5 29 -10 8 -8 19 -8 38 0 41 15 76 3 76 -26 0 -15 6 -24 15 -24 8 0 15
7 15 15 0 20 19 19 27 -1 5 -13 14 -15 46 -10 41 7 41 7 23 -13 -16 -17 -17
-23 -6 -36 7 -9 20 -13 29 -11 9 3 43 1 76 -5 33 -5 71 -11 85 -13 14 -2 30
-4 36 -4 7 -1 14 -10 16 -20 6 -23 126 -59 226 -68 39 -3 72 -10 72 -14 0 -5
15 -12 33 -15 17 -4 41 -14 52 -21 11 -8 43 -14 72 -14 28 0 54 -4 57 -9 5 -8
87 -22 161 -27 90 -6 138 -14 149 -23 7 -6 55 -11 107 -12 52 -1 115 -8 141
-16 28 -9 61 -12 78 -8 19 4 36 2 45 -5 19 -16 775 -16 805 0 11 6 53 10 93
10 39 -1 88 1 107 5 19 3 71 9 115 14 44 4 107 15 139 25 50 16 65 17 94 6 18
-6 36 -9 39 -6 4 3 0 6 -8 7 -8 0 26 9 75 20 48 10 92 17 96 14 13 -8 40 6 40
20 0 18 33 25 118 25 49 0 85 6 105 16 58 30 67 34 81 34 22 0 30 19 15 36
-14 17 -12 21 21 26 16 2 24 -1 22 -9 -4 -22 60 -15 164 18 116 36 145 49 138
61 -3 4 0 8 5 8 6 0 11 7 11 15 0 11 13 15 55 15 61 0 114 18 93 32 -7 4 1 5
20 2 25 -5 32 -3 32 10 0 15 10 19 82 31 36 5 63 35 32 35 -9 0 -14 6 -11 13
2 8 27 12 78 12 41 0 80 4 87 8 14 9 17 41 3 32 -5 -3 -12 -1 -16 4 -10 18 36
34 81 27 38 -5 45 -2 62 19 11 14 24 25 30 25 6 0 13 6 15 13 4 9 8 8 16 -3 9
-13 12 -13 23 2 7 9 24 18 38 20 18 2 25 9 23 23 -2 24 29 52 84 77 23 10 45
22 47 27 3 5 28 11 56 15 27 4 50 10 50 15 0 6 38 29 60 36 3 1 19 7 35 14 26
11 28 14 13 22 -25 14 -22 25 11 42 26 13 31 13 45 -1 14 -15 17 -15 28 0 7 8
27 19 43 23 29 8 29 8 7 14 l-24 6 21 19 c12 11 21 14 21 8 0 -6 -6 -13 -12
-15 -10 -4 -10 -6 -1 -6 7 -1 17 8 23 19 16 31 61 71 82 75 11 2 28 16 39 30
12 15 31 25 47 26 18 1 21 3 9 6 -18 5 -18 5 0 19 10 7 27 14 39 14 24 0 58
33 47 45 -5 4 -3 5 4 1 7 -4 18 2 25 14 7 11 18 20 25 20 7 0 13 8 13 19 0 19
83 91 105 91 7 0 30 16 51 35 21 19 41 35 46 35 4 0 10 11 14 25 3 13 21 35
39 49 18 14 50 43 71 65 21 23 46 43 55 46 9 3 20 16 23 28 3 12 19 28 36 35
16 8 27 18 24 23 -5 9 31 49 111 121 37 33 77 84 98 123 9 17 37 53 64 80 26
28 57 64 67 80 23 35 24 36 78 102 24 29 51 62 60 75 85 112 122 164 141 198
12 22 43 70 68 107 67 100 169 273 169 288 0 7 3 15 8 17 9 4 56 88 83 148 12
25 45 95 74 155 76 156 113 240 140 316 12 37 30 82 38 100 70 159 196 614
248 894 40 217 38 208 65 440 33 285 35 857 4 1120 -6 50 -13 115 -16 145 -19
214 -110 648 -190 908 -106 344 -202 580 -367 907 -50 99 -100 196 -112 215
-12 19 -39 64 -60 100 -41 69 -228 351 -273 411 -108 145 -156 205 -222 282
-41 48 -92 109 -114 135 -43 53 -216 232 -327 337 -249 237 -682 571 -894 689
-16 9 -37 21 -45 26 -235 154 -672 360 -1024 482 -453 158 -934 255 -1421 288
-173 11 -597 11 -765 -1z m-293 -621 c-3 -8 -6 -5 -6 6 -1 11 2 17 5 13 3 -3
4 -12 1 -19z m688 6 c282 -4 344 -7 454 -24 39 -7 100 -9 136 -6 40 3 65 1 67
-5 2 -6 39 -12 83 -13 97 -3 160 -14 199 -33 18 -10 74 -17 149 -21 108 -5
118 -7 101 -20 -12 -9 -13 -12 -4 -10 15 5 70 -18 80 -33 10 -15 101 -14 111
2 8 11 12 11 16 2 2 -7 13 -13 23 -13 10 0 32 -13 49 -29 25 -24 44 -31 95
-36 36 -4 69 -4 75 0 7 3 25 4 41 0 27 -6 28 -8 14 -22 -14 -14 -14 -17 0 -31
8 -9 30 -17 48 -18 59 -5 153 -25 162 -35 6 -6 4 -9 -6 -9 -9 0 -20 -5 -23
-10 -4 -6 -3 -10 2 -8 15 4 78 -14 100 -28 11 -7 42 -18 67 -25 25 -6 46 -16
46 -21 0 -5 8 -8 18 -6 10 1 30 -9 46 -23 20 -19 48 -30 97 -38 65 -12 87 -29
59 -46 -18 -11 1 -26 28 -24 50 4 93 -1 88 -9 -9 -14 33 -52 57 -52 33 0 114
-42 128 -67 8 -16 22 -23 40 -23 20 0 27 -4 23 -14 -3 -9 3 -17 16 -21 11 -4
41 -27 66 -51 25 -24 50 -44 54 -44 5 0 21 -12 37 -27 48 -46 67 -54 92 -37
19 13 23 13 45 -3 29 -21 40 -54 23 -65 -8 -5 -5 -8 9 -8 12 0 25 -10 32 -25
7 -14 18 -25 24 -24 13 2 41 -6 68 -20 8 -4 15 -19 15 -32 0 -14 7 -25 18 -27
9 -2 17 1 17 7 0 6 -8 11 -17 12 -12 0 -14 2 -5 6 8 3 29 -3 49 -13 29 -16 34
-24 30 -46 -3 -24 -1 -27 19 -22 17 4 28 -3 50 -35 16 -22 44 -48 63 -58 19
-10 39 -27 45 -38 6 -11 17 -24 24 -28 6 -4 12 -15 12 -23 0 -8 14 -20 30 -25
17 -6 30 -15 30 -19 0 -5 20 -28 45 -51 25 -23 45 -51 45 -62 0 -13 5 -17 15
-13 9 3 24 -5 38 -20 12 -14 32 -37 45 -51 12 -13 22 -29 22 -34 0 -6 23 -32
50 -59 28 -27 50 -52 50 -57 0 -5 14 -19 30 -31 17 -13 30 -32 30 -43 0 -12 8
-23 20 -26 11 -3 20 -9 20 -13 0 -3 21 -34 48 -66 26 -33 54 -73 62 -89 8 -17
27 -45 42 -63 16 -18 38 -54 50 -79 11 -24 27 -47 35 -50 7 -3 13 -14 13 -25
0 -10 10 -29 23 -41 27 -28 57 -73 57 -87 0 -5 9 -19 20 -30 11 -11 20 -28 20
-39 0 -10 9 -30 20 -44 11 -14 27 -41 35 -59 9 -18 19 -40 25 -48 5 -8 15 -28
23 -45 18 -37 95 -191 112 -225 14 -26 38 -86 82 -200 13 -36 32 -83 40 -105
9 -22 19 -53 24 -70 4 -16 22 -70 39 -120 39 -113 104 -365 131 -510 73 -390
93 -602 93 -985 0 -306 -5 -391 -40 -655 -28 -208 -90 -513 -134 -660 -10 -33
-26 -87 -35 -120 -9 -33 -22 -76 -30 -95 -7 -19 -29 -82 -50 -140 -46 -132
-83 -222 -141 -347 -71 -155 -84 -179 -176 -346 -163 -295 -368 -588 -612
-876 -53 -63 -368 -374 -440 -436 -32 -27 -77 -66 -100 -86 -74 -64 -190 -156
-256 -203 -92 -65 -340 -229 -370 -244 -14 -7 -52 -29 -85 -49 -70 -42 -353
-187 -440 -225 -296 -130 -586 -229 -825 -283 -41 -9 -97 -23 -125 -30 -188
-50 -623 -103 -914 -111 -224 -7 -523 5 -706 27 -435 53 -897 167 -1233 306
-126 52 -288 132 -303 149 -7 8 -30 24 -51 35 -44 23 -48 43 -13 71 14 11 25
27 25 36 0 9 7 26 15 36 13 17 12 22 -4 45 -16 22 -16 28 -5 39 7 6 16 12 19
12 4 0 12 6 19 13 8 6 23 19 36 27 12 8 28 27 36 42 7 14 27 32 44 40 16 7 30
18 30 24 0 16 69 84 96 95 14 5 29 20 34 34 5 14 13 25 18 25 4 0 19 18 32 39
14 21 51 58 83 81 31 23 63 54 70 69 7 14 21 25 30 25 11 -1 17 6 17 19 0 21
83 107 104 107 17 0 114 48 151 73 20 15 47 22 86 23 32 2 66 7 76 12 27 14
143 15 143 1 0 -9 19 -10 66 -6 46 5 76 2 102 -8 20 -8 66 -16 102 -19 35 -2
66 -9 68 -15 2 -6 21 -11 42 -11 20 0 54 -7 73 -15 22 -9 67 -15 112 -15 42 0
85 -5 96 -11 30 -15 468 -22 629 -10 281 22 326 27 347 39 12 7 36 12 53 12
17 0 56 11 86 25 30 14 58 24 62 23 15 -4 82 13 82 22 0 4 19 11 43 15 58 8
152 48 262 110 33 18 71 34 83 34 13 1 36 14 50 31 15 17 34 30 43 30 9 0 22
7 29 16 8 8 28 21 47 29 18 8 33 19 33 24 0 6 7 11 15 11 8 0 24 11 37 24 13
13 35 26 50 30 31 7 48 44 27 57 -11 6 -4 17 26 43 27 24 42 31 47 23 6 -9 8
-9 8 1 0 6 9 12 20 12 12 0 26 12 35 30 9 17 22 30 29 30 8 0 17 14 21 30 4
17 15 35 26 40 10 6 19 15 19 20 0 6 23 32 50 59 28 27 50 54 50 60 0 6 6 11
14 11 12 0 56 73 56 94 0 4 14 19 30 33 17 13 30 31 30 39 0 8 5 14 10 14 6 0
10 7 10 16 0 9 12 35 28 58 15 22 33 53 41 69 8 15 18 27 22 27 4 0 11 15 14
33 4 17 13 43 20 57 43 81 135 321 135 351 0 10 4 20 9 23 12 8 43 139 39 167
-2 18 -13 25 -53 34 -27 7 -106 28 -175 48 -295 84 -462 130 -722 198 -181 48
-179 48 -204 -39 -32 -108 -168 -353 -243 -435 -207 -229 -418 -357 -693 -422
-94 -22 -313 -30 -458 -16 -408 40 -735 279 -910 665 -68 150 -135 364 -165
531 -14 77 -30 160 -36 185 -17 81 -38 319 -50 565 -16 330 -1 733 37 1020 42
316 124 665 156 665 6 0 8 9 5 19 -2 11 4 32 14 48 10 15 19 37 19 47 0 11 11
34 25 52 14 18 25 37 25 41 0 5 8 18 18 29 37 42 78 100 90 127 7 16 21 31 32
34 11 3 20 9 20 13 0 5 8 11 18 14 10 4 26 22 35 40 9 19 28 40 43 48 15 7 32
22 38 33 18 32 50 54 77 55 15 0 32 7 40 16 16 19 69 47 69 37 0 -5 4 -3 8 2
11 16 66 50 75 47 5 -1 25 5 45 14 66 29 77 33 107 38 40 7 130 25 183 37 53
11 302 12 302 0 0 -5 18 -11 40 -15 22 -3 40 -11 40 -16 0 -6 18 -10 40 -10
22 0 40 -4 40 -10 0 -5 18 -10 41 -10 26 0 57 -10 85 -26 24 -14 51 -24 59
-21 8 4 16 -1 20 -12 3 -10 23 -23 45 -30 21 -6 52 -22 67 -35 15 -12 36 -25
46 -29 9 -3 17 -11 17 -16 0 -6 14 -17 30 -26 17 -9 30 -22 30 -30 0 -8 9 -15
20 -15 11 0 27 -12 37 -27 30 -45 83 -92 114 -98 24 -5 28 -10 19 -20 -8 -10
-6 -15 9 -20 12 -3 24 -18 28 -33 6 -27 31 -72 45 -82 10 -8 78 -158 78 -175
0 -22 35 -36 77 -30 99 14 124 13 118 -4 -4 -14 11 -16 142 -14 146 1 209 8
228 23 6 4 33 10 62 14 35 4 69 18 103 41 29 19 57 35 62 35 18 0 73 52 78 74
5 16 33 29 140 66 74 24 139 49 143 55 15 20 -6 109 -75 310 -57 165 -196 451
-234 481 -8 6 -14 15 -14 19 0 18 -148 205 -224 284 -253 262 -567 440 -946
537 -427 109 -967 113 -1402 10 -166 -39 -482 -149 -513 -177 -19 -18 -55 -9
-73 19 -67 106 -408 519 -531 643 -253 255 -441 450 -441 459 0 5 6 10 13 10
7 0 25 29 41 65 21 49 33 65 48 65 19 0 88 62 88 78 0 4 15 12 33 18 96 34
144 56 159 74 9 11 23 20 32 20 10 0 13 6 9 18 -4 13 -3 14 6 6 8 -8 36 -5 98
8 95 21 115 31 106 55 -5 13 -2 15 13 9 68 -29 90 -28 165 3 41 16 94 35 119
41 25 6 69 20 98 31 29 10 72 19 95 19 23 0 74 8 112 17 39 9 108 17 155 17
59 1 84 5 83 13 -3 13 67 24 137 23 25 -1 59 3 75 8 17 5 47 7 68 4 22 -2 37
0 37 6 0 13 46 21 80 15 14 -3 142 -7 285 -9z m-5931 -1 c8 -8 523 -6 611 2
46 5 75 1 125 -15 71 -23 309 -40 280 -20 -11 8 -4 9 25 4 22 -4 42 -11 43
-15 2 -5 21 -9 43 -9 26 0 46 -7 59 -20 30 -30 66 -41 110 -34 48 8 83 -2 60
-16 -11 -7 -2 -10 30 -10 25 0 70 -7 100 -15 30 -8 69 -15 86 -15 17 0 34 -3
38 -7 4 -5 24 -8 44 -8 24 0 36 -4 34 -12 -1 -7 4 -13 12 -13 7 0 27 -7 42
-15 16 -8 46 -15 68 -15 28 0 43 -6 57 -24 11 -14 34 -26 59 -30 22 -3 40 -11
40 -16 0 -6 16 -10 35 -10 35 0 75 -25 75 -46 0 -15 33 -24 93 -24 45 0 48 -2
54 -30 3 -18 12 -30 22 -30 31 0 111 -103 111 -143 0 -21 30 -30 49 -15 9 7 6
1 -5 -12 -12 -14 -25 -33 -30 -42 -5 -9 -104 -113 -219 -230 -116 -117 -239
-247 -275 -287 -36 -41 -70 -79 -75 -85 -75 -79 -395 -497 -395 -515 0 -5 -7
-15 -16 -22 -9 -7 -33 -38 -53 -69 -55 -83 -115 -159 -127 -159 -12 -1 -65
133 -119 299 -20 63 -43 125 -51 138 l-14 22 -765 0 c-420 0 -766 -4 -769 -9
-9 -14 -201 -626 -323 -1031 -14 -47 -43 -139 -64 -205 -21 -66 -51 -167 -68
-225 -84 -292 -105 -363 -136 -460 -19 -58 -48 -152 -64 -210 -16 -58 -42
-143 -56 -190 -42 -134 -104 -339 -125 -410 -10 -36 -36 -123 -58 -195 -111
-358 -274 -895 -283 -930 -5 -22 -25 -89 -44 -150 -19 -60 -57 -189 -86 -285
-28 -96 -64 -215 -79 -265 -16 -49 -40 -130 -55 -180 -44 -148 -140 -465 -195
-645 -54 -173 -142 -465 -147 -485 -3 -11 -16 -54 -29 -95 -13 -41 -37 -120
-53 -175 -15 -55 -44 -154 -64 -220 -43 -148 -49 -177 -39 -191 4 -6 72 -16
152 -22 166 -13 193 -19 186 -38 -5 -14 40 -44 65 -44 7 0 20 -7 30 -16 37
-34 373 -38 412 -5 8 6 37 18 65 26 28 9 58 22 66 31 17 17 112 44 155 44 16
0 33 6 39 13 13 16 56 135 82 227 10 36 25 82 34 102 9 21 16 49 16 63 0 15
13 65 29 113 16 48 37 116 46 152 9 36 24 88 35 115 10 28 28 82 41 120 36
111 127 253 144 225 10 -16 24 -2 33 32 6 25 16 33 52 45 46 14 111 44 120 53
20 21 142 30 500 35 448 6 758 -8 776 -36 3 -5 12 -9 20 -9 9 0 40 -11 71 -26
31 -14 68 -27 82 -30 18 -4 34 -18 46 -42 15 -27 27 -37 45 -37 22 0 25 -4 25
-34 0 -25 5 -36 22 -42 12 -4 29 -25 39 -46 9 -21 27 -49 39 -63 12 -14 26
-38 30 -55 3 -16 28 -68 54 -115 26 -47 64 -119 84 -161 21 -43 44 -80 52 -83
8 -3 15 -12 15 -21 0 -8 4 -15 8 -15 4 0 18 -19 30 -42 12 -24 33 -61 47 -83
13 -22 24 -47 25 -56 0 -9 11 -28 25 -43 14 -15 25 -32 25 -38 0 -6 18 -28 40
-49 22 -22 40 -46 40 -54 0 -8 4 -15 8 -15 5 0 14 -12 21 -27 21 -46 101 -163
111 -163 6 0 10 -11 10 -25 0 -14 3 -25 8 -25 4 0 32 -24 62 -53 36 -34 60
-67 70 -96 15 -45 36 -63 50 -41 6 9 10 7 15 -9 3 -11 4 -24 1 -29 -2 -4 -1
-14 4 -22 7 -11 11 -11 24 -1 13 11 16 11 16 0 0 -16 43 -59 59 -59 12 0 26
-46 22 -72 -2 -15 3 -17 27 -12 25 5 31 2 45 -29 11 -23 28 -39 48 -46 31 -11
89 -63 89 -80 0 -4 20 -19 45 -32 46 -24 66 -49 40 -49 -23 0 -6 -29 21 -36
13 -3 24 -12 24 -20 0 -8 4 -14 9 -14 6 0 25 -25 43 -55 19 -31 40 -55 50 -55
25 0 31 -18 9 -25 -17 -5 -16 -8 10 -36 34 -36 36 -49 12 -73 -38 -38 -249
-146 -398 -204 -294 -114 -673 -216 -950 -257 -60 -8 -135 -20 -165 -25 -228
-39 -831 -48 -1120 -17 -650 70 -1206 233 -1755 514 -303 155 -578 333 -826
534 -50 41 -119 96 -152 123 -34 28 -143 131 -243 230 -173 174 -309 338 -346
418 l-16 37 28 10 c22 7 30 18 36 45 3 20 12 36 19 36 18 0 55 48 55 70 0 10
6 23 14 29 8 7 18 25 21 41 3 16 14 30 22 32 9 2 21 19 28 38 8 23 19 36 36
40 15 4 28 17 34 36 10 30 33 63 93 133 17 21 32 42 32 46 0 5 6 16 14 24 7 9
28 45 47 81 18 36 43 78 56 93 13 16 23 35 23 43 0 7 15 46 34 86 41 87 63
148 122 328 48 148 53 186 27 194 -156 45 -1021 282 -1061 291 -44 9 -57 -3
-83 -83 -48 -146 -163 -338 -274 -460 -251 -273 -565 -412 -931 -412 -476 0
-820 186 -1030 557 -56 99 -138 280 -150 331 -3 15 -15 54 -25 87 -30 93 -75
308 -93 440 -9 66 -19 131 -22 145 -7 37 -23 289 -30 498 -7 175 9 665 26 817
22 202 64 437 91 515 10 30 19 65 19 79 0 14 13 64 29 111 16 47 31 94 33 105
2 11 10 20 18 20 9 0 16 11 18 25 6 53 13 69 47 103 19 19 35 43 35 53 0 38
23 81 51 93 15 7 33 25 40 40 7 15 27 37 46 50 19 12 39 33 45 47 7 14 27 32
45 39 18 8 37 25 42 38 10 25 29 37 70 44 14 2 38 15 54 29 15 13 35 24 43 24
8 0 14 5 14 10 0 6 8 10 19 10 10 0 30 9 44 20 14 11 34 20 45 20 12 0 24 5
27 10 3 6 21 10 40 10 19 0 37 5 40 10 3 6 21 10 39 10 18 0 41 7 52 15 12 9
43 14 82 15 35 0 73 5 85 12 30 16 187 10 257 -9 30 -8 84 -21 120 -27 78 -16
222 -66 232 -82 4 -6 30 -21 58 -33 28 -12 53 -28 56 -36 3 -8 21 -19 39 -25
19 -6 50 -29 69 -51 20 -21 43 -39 51 -39 8 0 15 -6 15 -13 0 -30 89 -104 118
-99 7 2 12 -7 12 -21 0 -13 11 -34 25 -47 14 -13 25 -29 25 -37 0 -7 4 -13 10
-13 11 0 39 -54 85 -165 l33 -80 86 1 c76 1 86 -1 86 -17 0 -10 5 -21 10 -24
6 -3 10 -2 10 4 0 6 66 11 168 14 164 4 278 19 296 38 6 5 16 9 24 9 7 0 28
11 45 24 18 14 44 27 59 31 15 4 30 16 33 26 4 10 13 19 21 19 13 0 18 11 15
36 -1 14 165 77 261 98 42 9 44 41 10 158 -60 208 -139 402 -217 538 -21 36
-43 74 -49 85 -57 100 -196 278 -335 430 -36 39 -43 59 -45 120 -2 51 16 84
42 79 7 -1 8 0 2 3 -5 2 -8 9 -5 14 4 5 -1 6 -10 2 -15 -5 -15 -3 -3 17 7 12
28 38 46 58 17 19 32 38 32 41 0 3 14 12 30 20 17 7 29 18 27 25 -2 6 15 34
37 61 23 28 52 65 65 83 16 22 28 31 40 27 9 -3 26 2 37 10 10 8 14 15 7 15
-25 0 -13 18 16 25 20 4 33 15 39 33 10 27 102 134 102 119 0 -13 45 33 45 46
0 7 11 11 23 10 13 -2 21 0 19 5 -8 12 40 65 52 58 6 -4 9 -12 6 -17 -10 -14
15 -11 31 5 18 19 18 24 -3 28 -15 3 -13 8 11 31 16 15 37 27 45 25 9 -1 35 9
59 22 31 19 41 30 38 44 -4 17 37 65 57 66 5 0 28 16 51 35 34 28 54 36 95 40
57 4 102 23 109 44 4 11 -3 12 -32 7 -20 -4 -36 -3 -36 1 0 14 37 32 56 27 25
-7 108 38 112 60 3 11 0 16 -7 12 -7 -5 -9 -1 -5 8 7 18 20 21 29 6 3 -5 18
-10 32 -10 22 0 24 3 19 25 -5 21 -2 27 19 35 14 5 38 7 54 4 22 -5 32 -1 48
20 12 14 30 26 41 26 12 0 25 7 30 17 7 12 18 14 41 10 24 -5 33 -2 41 13 6
11 20 20 30 20 11 0 20 5 20 10 0 6 9 10 20 10 11 0 20 5 20 11 0 6 -9 13 -20
16 -11 3 -20 8 -20 11 0 10 35 31 52 32 9 0 19 6 21 13 3 7 6 5 6 -5 1 -10 -3
-18 -9 -18 -5 0 -10 -7 -10 -15 0 -18 23 -19 51 -4 14 7 18 16 14 30 -7 21 20
28 28 7 4 -8 6 -7 6 4 1 10 13 19 31 23 28 6 37 23 31 58 -2 11 47 9 54 -3 15
-25 60 -10 97 32 l37 43 31 -17 c34 -19 76 -11 86 17 4 10 20 15 49 15 25 0
48 6 54 14 7 8 30 17 52 21 21 4 39 11 39 16 0 6 19 9 43 8 29 -1 57 6 91 25
28 15 65 26 86 26 21 0 43 7 50 15 8 10 31 15 71 15 33 0 59 4 59 9 0 5 26 12
58 15 153 15 177 19 183 27 3 6 26 11 51 12 26 2 53 8 61 15 16 14 207 23 207
10 0 -5 9 -4 20 2 14 8 26 8 40 0 11 -6 20 -7 20 -2 0 14 33 21 176 41 6 0 14
-2 18 -6z m6916 -33 c0 -5 -7 -10 -16 -10 -8 0 -12 5 -9 10 3 6 10 10 16 10 5
0 9 -4 9 -10z m-5310 -100 c0 -5 -2 -10 -4 -10 -3 0 -8 5 -11 10 -3 6 -1 10 4
10 6 0 11 -4 11 -10z m124 -29 c3 -4 -6 -6 -19 -3 -14 2 -25 6 -25 8 0 8 39 4
44 -5z m441 -160 c10 -17 -34 -34 -51 -20 -12 10 -12 14 -2 20 18 12 46 11 53
0z m1103 -750 c6 -1 22 -12 34 -26 12 -14 27 -25 33 -25 7 0 20 -9 30 -20 10
-11 23 -20 28 -20 6 0 30 -9 54 -21 34 -17 47 -19 58 -9 15 13 35 6 35 -12 0
-11 30 -40 67 -65 13 -8 21 -19 18 -23 -3 -5 -1 -11 5 -15 5 -3 10 -16 11 -28
l0 -22 16 22 15 23 39 -31 c22 -17 39 -37 39 -44 0 -25 23 -65 37 -65 7 0 13
-4 13 -10 0 -5 8 -10 17 -10 19 0 113 -88 113 -105 0 -5 9 -16 21 -23 12 -7
18 -16 15 -19 -8 -9 13 -43 27 -43 24 0 107 -103 107 -132 0 -4 -7 -5 -15 -2
-8 4 -15 1 -15 -4 0 -17 20 -25 34 -13 10 8 16 8 25 -3 6 -8 11 -18 10 -22 -4
-18 13 -42 27 -37 11 4 14 -5 14 -36 0 -26 5 -44 14 -47 8 -3 12 -13 8 -26 -4
-18 -2 -20 14 -14 37 14 39 12 35 -44 -3 -52 -21 -104 -39 -112 -4 -1 -36 -42
-70 -89 -34 -47 -71 -94 -82 -104 -11 -10 -20 -24 -20 -30 0 -7 -7 -18 -15
-25 -33 -28 -187 -275 -253 -405 -198 -397 -318 -814 -377 -1320 -55 -459 -52
-1192 5 -1625 21 -158 54 -357 70 -420 5 -19 19 -75 31 -125 34 -144 89 -328
110 -367 5 -10 9 -28 9 -41 0 -12 6 -31 13 -42 7 -11 26 -51 41 -90 16 -38 46
-106 67 -150 22 -44 39 -88 39 -99 0 -10 8 -26 18 -35 24 -21 84 -117 102
-161 7 -19 23 -46 34 -60 53 -62 85 -109 111 -163 16 -31 34 -57 41 -57 17 0
22 -19 17 -57 -4 -25 -1 -33 17 -43 16 -9 20 -18 16 -34 -4 -17 0 -26 19 -36
32 -17 32 -39 0 -76 -14 -16 -25 -34 -25 -41 0 -6 -6 -18 -12 -25 -7 -7 -29
-36 -48 -63 -118 -170 -394 -453 -655 -671 -38 -32 -76 -65 -84 -72 -26 -25
-156 -119 -201 -144 -25 -14 -52 -23 -60 -20 -16 5 -143 97 -196 141 -65 53
-120 101 -160 138 -46 42 -164 183 -164 196 0 5 15 7 33 5 34 -3 39 10 23 59
-5 17 -2 23 16 29 30 9 98 82 92 99 -9 21 12 27 139 37 79 6 127 15 136 24 16
14 9 44 -83 349 -20 66 -50 167 -67 225 -17 58 -44 146 -59 195 -50 157 -152
499 -157 525 -2 14 -8 34 -13 45 -8 17 -68 216 -145 480 -37 124 -172 575
-188 625 -8 25 -23 77 -35 115 -41 134 -101 331 -162 530 -34 110 -66 216 -70
235 -5 19 -18 64 -29 100 -11 36 -49 164 -85 285 -36 121 -88 297 -116 390
-29 94 -65 215 -82 270 -16 55 -43 141 -58 190 -15 50 -35 117 -45 150 -19 70
-60 210 -81 275 -21 70 -66 272 -66 301 1 14 18 61 40 105 22 43 43 90 47 104
4 14 19 45 33 70 25 43 33 55 60 85 6 7 12 17 12 21 0 17 74 161 99 194 16 19
38 54 49 77 12 23 37 59 57 80 19 21 40 50 46 65 6 16 18 28 25 28 8 0 17 12
20 28 4 15 31 56 60 91 30 36 52 66 50 69 -2 2 6 13 18 26 80 84 166 186 166
197 0 4 9 9 20 12 11 3 20 12 20 19 0 8 11 20 25 26 14 6 25 17 25 23 0 14 86
99 99 99 5 0 8 8 7 18 -1 13 5 16 25 14 22 -3 29 2 37 27 8 22 15 29 26 25 11
-4 16 0 16 10 0 9 12 21 28 27 30 11 66 47 68 67 1 6 2 18 3 26 0 9 15 16 39
18 25 2 37 8 36 18 -1 11 10 15 45 15 40 0 46 3 49 23 3 21 22 32 22 12 0 -23
65 -7 138 34 18 11 193 15 310 7z m-3010 -2358 c28 -3 45 -10 49 -21 11 -30
36 -52 60 -52 17 0 23 -6 23 -22 0 -21 1 -21 14 -3 12 17 15 13 35 -46 12 -35
28 -86 35 -114 7 -27 17 -59 23 -70 6 -11 14 -38 18 -60 4 -22 20 -83 36 -135
16 -52 41 -131 54 -175 14 -44 29 -100 34 -125 5 -25 16 -65 24 -90 26 -72 77
-245 77 -257 0 -6 18 -67 40 -134 22 -68 40 -135 40 -149 0 -14 4 -30 9 -35
10 -11 38 -106 51 -175 5 -25 15 -61 23 -80 8 -19 22 -66 31 -105 8 -38 25
-101 36 -140 12 -38 24 -98 27 -132 l5 -62 -33 -5 c-187 -29 -1320 -29 -1474
0 -32 6 -35 9 -35 39 0 18 12 80 26 137 14 56 29 121 33 143 5 22 20 76 34
120 14 44 33 109 42 145 9 36 23 83 31 105 8 23 14 48 14 56 0 9 18 74 40 145
57 181 58 185 65 224 8 50 45 170 61 203 8 16 14 38 14 50 0 12 7 45 14 72 8
28 26 93 41 145 15 52 30 100 35 105 4 6 11 26 15 45 4 19 20 74 36 122 16 47
30 95 32 105 1 10 5 23 8 28 4 6 12 27 19 48 8 25 17 37 28 35 9 -2 22 8 30
25 7 15 20 27 28 27 9 0 14 10 14 29 0 16 6 32 13 34 15 6 68 6 125 0z m-2678
-6187 c0 -3 -4 -8 -10 -11 -5 -3 -10 -1 -10 4 0 6 5 11 10 11 6 0 10 -2 10 -4z
m4775 -286 c-3 -5 -15 -10 -26 -10 -11 0 -17 5 -14 10 3 6 15 10 26 10 11 0
17 -4 14 -10z m-229 -95 c-11 -8 -34 -14 -50 -14 -24 1 -26 3 -8 6 12 2 22 9
22 14 0 5 12 9 28 9 26 -1 26 -1 8 -15z m-3456 -81 c0 -2 -9 -4 -21 -4 -11 0
-18 4 -14 10 5 8 35 3 35 -6z m360 -94 c22 -7 21 -8 -12 -9 -21 -1 -38 4 -38
9 0 11 14 11 50 0z m2370 -20 c0 -5 -5 -10 -11 -10 -5 0 -7 5 -4 10 3 6 8 10
11 10 2 0 4 -4 4 -10z m-1945 -61 c5 -5 -3 -9 -22 -9 -17 0 -37 7 -44 16 -12
15 -10 16 21 9 19 -4 39 -11 45 -16z"/>
<path d="M13183 21647 c-13 -5 -23 -19 -23 -29 0 -12 5 -17 13 -14 6 3 20 9
30 12 17 6 23 29 10 37 -5 3 -18 0 -30 -6z"/>
<path d="M8420 20666 c0 -8 5 -18 10 -21 6 -3 10 3 10 14 0 12 -4 21 -10 21
-5 0 -10 -6 -10 -14z"/>
<path d="M8050 17134 c0 -8 5 -12 10 -9 6 4 8 11 5 16 -9 14 -15 11 -15 -7z"/>
<path d="M13510 12920 c0 -6 7 -10 15 -10 8 0 15 2 15 4 0 2 -7 6 -15 10 -8 3
-15 1 -15 -4z"/>
<path d="M12365 11326 c-88 -28 -149 -79 -197 -166 -23 -43 -31 -66 -60 -175
-18 -68 -15 -303 5 -375 54 -201 135 -287 289 -305 110 -14 206 35 271 138 20
30 52 125 63 182 6 31 3 36 -21 45 -61 23 -135 0 -135 -43 0 -8 -14 -35 -31
-60 -23 -35 -41 -50 -69 -58 -113 -34 -190 46 -211 219 -13 101 -9 151 21 253
31 106 82 159 154 159 27 0 43 -9 74 -40 22 -21 44 -49 47 -62 13 -42 35 -58
81 -58 65 0 94 14 94 46 0 72 -57 183 -122 240 -42 37 -134 74 -181 73 -18 0
-50 -6 -72 -13z"/>
<path d="M19670 11326 c-73 -21 -93 -32 -133 -73 -86 -90 -103 -284 -35 -400
22 -37 77 -81 116 -93 92 -28 195 -71 227 -96 34 -26 37 -31 32 -66 -8 -56
-31 -86 -78 -98 -86 -23 -158 10 -183 85 -17 50 -46 65 -106 56 -44 -6 -45 -7
-48 -46 -6 -76 33 -174 89 -222 48 -41 77 -53 144 -62 181 -25 302 46 339 196
32 133 13 249 -53 318 -41 44 -62 55 -179 94 -155 52 -172 66 -172 139 0 52
31 81 96 88 41 5 54 2 77 -16 15 -12 35 -40 44 -61 8 -22 24 -44 34 -49 23
-13 80 -13 113 0 22 8 26 16 26 52 0 80 -75 201 -144 232 -79 37 -134 42 -206
22z"/>
<path d="M20678 11326 c-98 -28 -149 -76 -206 -191 -100 -204 -78 -579 43
-723 15 -18 50 -47 78 -66 111 -72 277 -50 359 49 46 56 80 137 94 224 5 33 3
41 -14 50 -25 13 -72 14 -104 2 -14 -5 -29 -24 -37 -47 -20 -55 -57 -101 -93
-113 -95 -33 -157 9 -202 140 -24 69 -21 237 6 329 12 41 25 77 28 80 4 3 12
15 19 28 13 24 70 52 106 52 37 0 88 -42 120 -100 30 -54 32 -55 80 -58 98 -6
116 13 91 97 -55 185 -213 291 -368 247z"/>
<path d="M12866 11298 c-14 -20 -16 -82 -16 -483 0 -345 3 -464 12 -473 7 -7
38 -12 70 -12 72 0 75 6 83 131 12 194 16 219 35 229 10 6 49 10 85 10 59 0
70 -3 94 -28 30 -29 34 -51 47 -220 4 -60 12 -98 21 -108 10 -9 37 -14 84 -14
77 0 91 11 71 55 -6 13 -14 86 -18 162 -5 110 -11 150 -30 198 l-23 59 26 46
c77 129 46 343 -61 425 -45 34 -117 45 -308 45 -151 0 -157 -1 -172 -22z m376
-184 c24 -15 40 -70 36 -122 -7 -79 -35 -102 -127 -102 -38 0 -83 3 -100 6
-29 6 -31 9 -31 54 0 26 3 75 6 108 l7 61 61 4 c64 4 133 0 148 -9z"/>
<path d="M13604 11306 c-18 -14 -19 -33 -22 -479 l-4 -465 22 -22 c21 -21 27
-22 264 -18 190 2 247 6 260 17 14 11 16 29 14 90 l-3 76 -175 6 c-96 4 -183
10 -193 14 -17 7 -18 16 -12 89 9 126 21 135 184 137 47 1 100 4 116 8 l30 6
0 85 0 85 -155 5 c-85 3 -161 9 -168 13 -11 8 -11 67 1 130 7 36 25 41 179 46
84 4 159 10 166 14 8 5 12 34 12 82 0 63 -3 76 -19 85 -12 6 -110 10 -248 10
-182 0 -233 -3 -249 -14z"/>
<path d="M14480 11308 c-13 -8 -28 -25 -31 -38 -4 -14 -16 -56 -27 -95 -11
-38 -36 -131 -56 -205 -19 -74 -62 -237 -96 -362 -33 -125 -60 -236 -60 -247
0 -21 8 -25 88 -36 53 -7 80 16 106 90 10 28 21 57 25 65 20 39 107 51 190 26
43 -12 45 -15 71 -87 30 -87 48 -99 130 -90 53 6 55 7 58 38 2 18 -2 49 -8 70
-7 21 -15 56 -20 78 -4 22 -15 67 -25 100 -9 33 -20 76 -25 95 -4 19 -24 98
-44 175 -21 77 -46 174 -57 215 -11 41 -29 105 -41 143 -19 64 -21 67 -51 67
-18 0 -48 3 -67 5 -20 3 -46 0 -60 -7z m87 -440 c15 -20 43 -102 43 -126 0
-20 -5 -22 -60 -22 -75 0 -80 9 -50 90 25 67 46 85 67 58z"/>
<path d="M14856 11304 c-18 -17 -23 -148 -7 -159 6 -3 47 -10 93 -16 87 -11
114 -23 88 -39 -13 -9 -13 -11 0 -20 13 -8 16 -62 19 -357 1 -191 7 -356 12
-365 8 -14 23 -18 68 -18 35 0 63 5 69 13 6 7 12 149 14 367 4 260 8 362 18
381 13 29 43 39 117 39 74 0 83 10 83 90 0 105 15 100 -295 100 -226 0 -266
-2 -279 -16z"/>
<path d="M15520 11300 c-20 -20 -20 -31 -20 -476 0 -295 4 -462 10 -475 9 -15
22 -19 69 -19 36 0 63 5 70 13 14 18 20 942 6 956 -6 4 -33 11 -62 15 -45 6
-55 4 -73 -14z"/>
<path d="M15767 11308 c-17 -13 -16 -20 12 -163 17 -83 41 -190 55 -240 14
-49 50 -193 81 -320 31 -126 64 -238 72 -247 12 -13 31 -18 74 -18 50 0 61 3
74 23 13 20 80 263 105 377 4 19 23 98 43 175 20 77 48 198 63 269 25 126 26
130 8 144 -23 17 -114 8 -130 -13 -6 -8 -29 -98 -52 -202 -67 -295 -97 -409
-112 -418 -5 -3 -12 11 -15 32 -4 21 -10 49 -15 63 -5 14 -20 79 -35 145 -89
412 -84 395 -117 395 -13 0 -39 3 -58 6 -22 3 -42 0 -53 -8z"/>
<path d="M16483 11305 c-17 -13 -18 -38 -18 -484 0 -373 3 -473 13 -483 18
-18 487 -18 520 1 21 11 23 18 20 89 l-3 77 -170 6 c-106 3 -179 10 -193 17
-21 12 -22 17 -16 100 4 50 12 93 20 101 9 10 54 16 155 22 165 9 169 11 169
97 0 91 -1 92 -149 92 -70 0 -142 5 -160 11 -31 11 -31 11 -31 85 0 88 -15 81
192 93 93 5 153 13 163 21 11 9 15 32 15 81 0 58 -3 70 -20 79 -31 17 -483 12
-507 -5z"/>
<path d="M17638 11308 c-17 -13 -52 -126 -107 -343 -17 -66 -43 -163 -57 -215
-103 -379 -107 -404 -77 -414 35 -11 122 -9 137 3 8 7 22 37 31 67 8 30 19 54
24 54 5 0 11 8 13 18 9 34 164 52 204 23 18 -12 42 -58 53 -97 19 -72 34 -80
138 -76 57 3 67 23 46 88 -8 27 -19 65 -24 84 -11 48 -50 197 -97 375 -70 262
-81 301 -92 329 -5 15 -10 38 -10 51 0 39 -44 65 -109 65 -32 0 -64 -6 -73
-12z m115 -478 c15 -44 24 -87 20 -96 -4 -11 -19 -14 -62 -12 -55 3 -56 3 -55
33 3 48 22 109 38 121 9 6 16 16 16 23 0 6 4 11 9 11 5 0 20 -36 34 -80z"/>
<path d="M18195 11312 c-30 -7 -30 -8 -37 -92 -3 -47 -6 -259 -7 -472 -1 -339
1 -389 15 -402 19 -20 117 -22 132 -3 6 7 13 59 17 117 8 133 23 211 44 227
16 13 117 18 145 7 37 -14 55 -67 67 -202 15 -159 21 -167 107 -164 70 3 91
19 74 57 -7 15 -12 74 -12 138 0 114 -14 199 -41 250 -14 26 -13 32 18 95 66
131 54 272 -29 367 -64 72 -85 78 -288 81 -96 2 -188 0 -205 -4z m345 -197
c18 -11 40 -77 40 -121 0 -31 -7 -51 -24 -71 -22 -25 -31 -28 -105 -31 -45 -2
-92 -1 -106 2 -23 6 -25 11 -25 69 0 70 19 144 41 158 14 10 161 5 179 -6z"/>
<path d="M18833 11310 c-18 -7 -22 -18 -25 -72 -6 -104 -15 -96 126 -115 55
-7 60 -11 69 -38 5 -16 12 -188 16 -382 4 -241 10 -356 17 -363 12 -12 90 -16
122 -6 28 9 30 25 27 192 -5 229 12 565 28 581 8 8 46 16 88 20 50 3 78 10 87
21 7 9 12 45 12 84 0 62 -2 69 -23 77 -30 12 -515 12 -544 1z"/>
<path d="M21185 11306 c-19 -14 -20 -28 -23 -483 -3 -436 -2 -470 14 -484 14
-11 63 -14 258 -14 291 0 286 -2 286 90 0 100 7 95 -144 95 -189 0 -235 7
-242 36 -7 28 11 173 23 185 4 4 73 13 153 19 80 6 149 16 155 21 12 12 7 139
-6 155 -7 8 -58 13 -159 16 -81 1 -152 7 -157 11 -10 11 -5 149 6 160 4 4 71
10 148 13 77 3 153 8 169 13 28 7 29 9 32 84 3 73 1 78 -20 86 -13 5 -124 9
-248 10 -184 2 -229 -1 -245 -13z"/>
<path d="M21858 11312 c-9 -2 -19 -11 -22 -20 -3 -9 -6 -222 -8 -473 -2 -372
0 -459 11 -473 20 -23 117 -23 129 2 5 9 12 113 16 231 3 117 11 222 17 232 9
19 11 19 34 2 13 -10 38 -48 55 -85 17 -37 36 -70 41 -73 5 -4 9 -13 9 -22 0
-29 100 -267 122 -290 17 -18 32 -23 72 -23 98 1 91 -36 91 501 0 454 -1 471
-19 485 -22 16 -83 18 -106 4 -18 -11 -27 -129 -29 -370 -1 -91 -5 -171 -10
-179 -13 -20 -27 6 -121 219 -45 102 -91 203 -101 224 -10 22 -19 45 -19 50 0
6 -9 22 -19 35 -15 20 -28 24 -72 26 -30 0 -62 -1 -71 -3z"/>
<path d="M22530 11310 c-18 -11 -30 -124 -15 -153 6 -12 19 -23 30 -24 11 -1
50 -5 86 -8 l67 -6 11 -88 c6 -48 11 -217 11 -375 0 -179 4 -295 10 -307 9
-15 22 -19 70 -19 94 0 90 -16 90 333 0 282 10 431 28 449 5 5 40 11 78 15
102 9 104 10 104 99 0 71 -1 75 -26 84 -32 13 -524 13 -544 0z"/>
<path d="M23205 11306 c-19 -14 -20 -29 -22 -480 l-3 -466 23 -21 c21 -20 28
-21 257 -17 162 3 242 8 258 17 21 11 23 18 20 89 l-3 77 -165 6 c-91 3 -175
7 -186 8 -15 1 -24 10 -28 27 -8 29 12 182 24 189 9 6 75 12 203 21 79 5 99 9
107 24 14 26 10 112 -6 138 -14 21 -21 22 -147 22 -159 0 -175 4 -179 39 -4
34 11 123 23 135 5 5 75 12 156 14 82 2 156 8 166 13 14 8 17 23 17 85 0 69
-2 75 -24 84 -13 5 -125 9 -248 10 -180 0 -227 -2 -243 -14z"/>
<path d="M23884 11310 c-21 -8 -22 -16 -29 -222 -3 -117 -5 -331 -3 -476 2
-220 5 -264 18 -272 8 -5 41 -10 72 -10 45 0 59 4 66 18 5 9 12 78 15 152 3
74 11 149 17 167 11 31 12 32 81 32 78 0 109 -10 128 -42 7 -11 19 -84 26
-161 11 -125 15 -142 35 -158 18 -15 33 -17 69 -13 81 11 84 13 76 48 -3 18
-10 95 -15 172 -8 141 -19 208 -39 228 -16 16 -14 35 7 65 58 85 65 234 17
340 -31 68 -48 88 -100 116 -37 19 -56 21 -230 22 -104 1 -200 -2 -211 -6z
m330 -190 c43 -10 51 -18 66 -73 14 -49 3 -105 -26 -134 -21 -21 -32 -23 -112
-23 -122 0 -127 5 -116 106 4 43 7 89 6 101 -2 19 3 22 40 26 80 7 103 7 142
-3z"/>
</g>
</svg>
